<?xml version="1.0" standalone="no"?>
<!DOCTYPE svg PUBLIC "-//W3C//DTD SVG 20010904//EN"
 "http://www.w3.org/TR/2001/REC-SVG-20010904/DTD/svg10.dtd">
<svg version="1.0" xmlns="http://www.w3.org/2000/svg"
 width="167.000000pt" height="34.000000pt" viewBox="0 0 167.000000 34.000000"
 preserveAspectRatio="xMidYMid meet">

<g transform="translate(0.000000,34.000000) scale(0.100000,-0.100000)"
stroke="none">
<path d="M0 305 c0 -20 5 -25 25 -25 20 0 25 5 25 25 0 20 -5 25 -25 25 -20 0
-25 -5 -25 -25z"/>
<path d="M702 189 c3 -134 4 -142 26 -157 l22 -14 0 156 0 156 -25 0 -26 0 3
-141z"/>
<path d="M810 305 c0 -20 5 -25 25 -25 20 0 25 5 25 25 0 20 -5 25 -25 25 -20
0 -25 -5 -25 -25z"/>
<path d="M358 303 c-16 -4 -18 -19 -18 -126 0 -67 4 -128 8 -135 5 -7 25 -15
45 -19 33 -5 37 -3 37 16 0 14 -6 21 -20 21 -18 0 -20 7 -20 75 0 68 2 75 20
75 13 0 20 7 20 20 0 13 -7 20 -20 20 -16 0 -20 7 -20 30 0 17 -3 29 -7 29 -5
-1 -16 -3 -25 -6z"/>
<path d="M0 161 c0 -100 4 -117 31 -132 18 -9 19 -4 19 106 l0 115 -25 0 c-25
0 -25 -1 -25 -89z"/>
<path d="M100 166 c0 -99 11 -136 40 -136 19 0 20 6 20 90 l0 90 30 0 c39 0
50 -27 50 -121 0 -67 1 -70 23 -67 21 3 22 7 22 96 0 119 -11 132 -116 132
l-69 0 0 -84z"/>
<path d="M494 227 c-22 -19 -28 -34 -31 -78 -7 -98 34 -137 130 -125 l57 7 0
103 0 104 -31 6 c-60 12 -97 7 -125 -17z m96 -92 c0 -72 -1 -75 -24 -75 -35 0
-51 26 -50 82 1 53 12 68 52 68 21 0 22 -4 22 -75z"/>
<path d="M812 149 c3 -93 5 -103 26 -117 l22 -14 0 116 0 116 -25 0 -26 0 3
-101z"/>
<path d="M935 225 c-22 -21 -25 -33 -25 -90 0 -51 4 -69 20 -85 46 -46 124
-36 153 20 26 50 17 127 -18 158 -37 31 -98 30 -130 -3z m89 -28 c13 -10 17
-24 14 -67 -3 -49 -6 -55 -26 -58 -13 -2 -30 2 -38 8 -19 17 -18 94 2 114 19
19 25 20 48 3z"/>
</g>
</svg>
